<?xml version="1.0" encoding="UTF-8" standalone="no"?>
<!DOCTYPE svg PUBLIC "-//W3C//DTD SVG 1.1//EN" "http://www.w3.org/Graphics/SVG/1.1/DTD/svg11.dtd">
<svg width="100%" height="100%" viewBox="0 0 280 345" version="1.1" xmlns="http://www.w3.org/2000/svg" xmlns:xlink="http://www.w3.org/1999/xlink" xml:space="preserve" xmlns:serif="http://www.serif.com/" style="fill-rule:evenodd;clip-rule:evenodd;stroke-linejoin:round;stroke-miterlimit:2;">
    <g transform="matrix(1,0,0,1,-30,-6)">
        <rect id="sheshat_col_black" x="0" y="0" width="350" height="350" style="fill:none;"/>
        <g id="sheshat_col_black1" serif:id="sheshat_col_black">
            <g transform="matrix(2.09034,0,0,1.84194,-184.611,-85.0804)">
                <g transform="matrix(-0.625422,-3.82961e-17,-3.82961e-17,0.625422,57.8788,127.504)">
                    <path d="M-141.605,-111.612C-178.597,-111.612 -172.07,-88.024 -172.07,14.995C-172.07,119.308 -178.597,141.605 -141.605,141.605C-104.613,141.605 -74.62,84.919 -74.62,14.995C-74.62,-54.928 -104.613,-111.612 -141.605,-111.612" style="fill:rgb(142,182,225);fill-rule:nonzero;"/>
                </g>
                <g transform="matrix(-0.625422,-3.82961e-17,-3.82961e-17,0.625422,79.2551,129.382)">
                    <path d="M-113.281,-89.293C-142.879,-89.293 -137.656,-70.422 -137.656,11.994C-137.656,95.443 -142.879,113.281 -113.281,113.281C-83.687,113.281 -59.695,67.932 -59.695,11.994C-59.695,-43.945 -83.687,-89.293 -113.281,-89.293" style="fill:rgb(99,153,209);fill-rule:nonzero;"/>
                </g>
                <g transform="matrix(-0.625422,-3.82961e-17,-3.82961e-17,0.625422,96.5433,130.881)">
                    <path d="M-90.627,-71.432C-114.303,-71.432 -110.127,-56.336 -110.127,9.597C-110.127,76.355 -114.303,90.627 -90.627,90.627C-66.951,90.627 -47.756,54.347 -47.756,9.597C-47.756,-35.155 -66.951,-71.432 -90.627,-71.432" style="fill:rgb(55,112,183);fill-rule:nonzero;"/>
                </g>
                <g transform="matrix(-0.625422,-3.82961e-17,-3.82961e-17,0.625422,121.89,146.261)">
                    <path d="M-111.614,-141.603C-74.618,-141.603 -81.146,-118.015 -81.146,-14.995C-81.146,89.318 -74.618,111.614 -111.614,111.614C-148.606,111.614 -178.599,54.929 -178.599,-14.995C-178.599,-84.919 -148.606,-141.603 -111.614,-141.603" style="fill:rgb(253,228,151);fill-rule:nonzero;"/>
                </g>
                <g transform="matrix(-0.625422,-3.82961e-17,-3.82961e-17,0.625422,132.189,144.387)">
                    <path d="M-89.289,-113.285C-59.695,-113.285 -64.914,-94.414 -64.914,-11.998C-64.914,71.451 -59.695,89.289 -89.289,89.289C-118.883,89.289 -142.879,43.94 -142.879,-11.998C-142.879,-67.937 -118.883,-113.285 -89.289,-113.285" style="fill:rgb(254,208,77);fill-rule:nonzero;"/>
                </g>
                <g transform="matrix(-0.625422,-3.82961e-17,-3.82961e-17,0.625422,140.237,142.884)">
                    <path d="M-71.436,-90.623C-47.756,-90.623 -51.936,-75.527 -51.936,-9.594C-51.936,57.164 -47.756,71.436 -71.436,71.436C-95.108,71.436 -114.303,35.156 -114.303,-9.594C-114.303,-54.346 -95.108,-90.623 -71.436,-90.623" style="fill:rgb(254,194,13);fill-rule:nonzero;"/>
                </g>
            </g>
            <g transform="matrix(1.27246,0,0,1.26616,-47.4407,-3.99665)">
                <path d="M209.722,192.411L223.61,196.768C202.317,239.57 142.543,240.676 119.78,197.826L129.755,193.558C145.352,230.526 195.193,229.295 209.722,192.411Z"/>
                <path d="M199.626,189.54L205.516,190.912C196.147,222.276 147.479,226.536 134.326,192.453L142.049,190.335C148.62,203.797 155.441,210.475 171.267,210.399C171.267,210.399 172.045,208.415 172.277,207.821C172.317,207.72 172.411,207.651 172.519,207.644C184.307,206.813 194.262,200.748 199.626,189.54Z"/>
                <path d="M206.472,116.259C206.955,116.302 207.322,116.712 207.312,117.197C207.461,123.139 212.472,131.734 215.182,138.528C215.439,139.185 215.276,139.931 214.77,140.421C213.535,141.484 211.145,142.068 209.296,142.324C208.791,142.391 208.394,142.786 208.324,143.29C208.282,144.315 208.495,145.718 209.198,147.496C209.303,147.773 209.29,148.08 209.163,148.347C209.036,148.614 208.806,148.818 208.525,148.912C206.49,149.597 205.032,150.244 204.695,150.838C204.684,151.033 204.764,151.221 204.912,151.348C205.218,151.65 205.921,152.041 207.898,152.709C208.165,152.816 208.374,153.033 208.469,153.305C208.565,153.577 208.538,153.877 208.396,154.127C207.488,155.79 206.584,156.842 205.548,157.317C204.9,159.57 206.129,160.518 206.648,162.52C206.686,162.668 206.632,162.935 206.548,163.242C206.568,164.121 206.105,164.941 205.341,165.377C201.283,167.138 192.321,165.961 186.791,165.106L186.772,187.232C189.372,188.666 192.173,189.042 195.068,188.933C186.461,202.03 180.044,202.517 173.675,202.726L173.695,133.265C175.5,119.075 187.72,114.616 206.472,116.259ZM192.716,124.783C192.694,124.957 192.683,125.134 192.683,125.314C192.683,127.467 194.298,129.215 196.288,129.215C198.277,129.215 199.892,127.467 199.892,125.314C199.892,125.17 199.885,125.027 199.871,124.886C201.656,124.597 203.138,124.079 204.145,123.472C204.291,123.366 204.376,123.196 204.372,123.015C204.368,122.835 204.276,122.669 204.125,122.57C198.722,119.409 187.612,120.381 182.842,126.445C182.799,126.502 182.796,126.579 182.834,126.639C182.872,126.699 182.943,126.729 183.012,126.715L192.716,124.783Z"/>
                <path d="M209.189,105.575C209.274,107.981 209.011,110.468 208.357,113.013C175.234,110.661 171.86,124.538 170.84,137.901C168.934,162.887 171.612,203.496 169.821,206.933C157.29,204.833 148.425,199.333 147.006,186.923C140.269,187.97 118.338,179.915 113.858,172.41C117.719,142.69 122.082,119.982 126.964,105.575L209.189,105.575ZM128.545,101.247C129.162,99.687 129.787,98.257 130.42,96.957L207.314,96.957C207.884,98.343 208.333,99.775 208.65,101.247L128.545,101.247ZM132.863,92.657C133.998,90.985 135.158,89.717 136.341,88.867C159.521,66.85 193.401,74.355 205.073,92.657L132.863,92.657Z"/>
                <g transform="matrix(1,0,0,1,-1.78076,0.104455)">
                    <circle cx="171.862" cy="66.164" r="4.774"/>
                </g>
                <g transform="matrix(1,0,0,1,-0.00513626,0.406728)">
                    <rect x="167.637" y="69.543" width="4.934" height="8.533"/>
                </g>
                <g transform="matrix(1.04938,0,0,1.04938,11.0165,-10.1169)">
                    <path d="M151.305,21.568L155.782,39.285L172.426,31.739L161.365,46.286L177.642,54.593L159.373,55.015L163.026,72.921L151.305,58.9L139.584,72.921L143.238,55.015L124.968,54.593L141.245,46.286L130.185,31.739L146.828,39.285L151.305,21.568Z"/>
                </g>
            </g>
            <g transform="matrix(1.27246,0,0,1.26616,-66.2444,11.9914)">
                <g transform="matrix(52,0,0,52,255.644,262.03)">
                </g>
                <text x="114.36px" y="262.03px" style="font-family:'AvenirNextCondensed-Medium', 'Avenir Next Condensed', sans-serif;font-weight:500;font-stretch:condensed;font-size:52px;">SESHA<tspan x="236.976px " y="262.03px ">T</tspan></text>
            </g>
        </g>
    </g>
</svg>
